<svg preserveAspectRatio="none" width="100%" height="100%" overflow="visible" style="display: block;" viewBox="0 0 24 24" fill="none" xmlns="http://www.w3.org/2000/svg">
<g id="Notification icon">
<path id="Vector (Stroke)" fill-rule="evenodd" clip-rule="evenodd" d="M12 3.75C11.6685 3.75 11.3505 3.8817 11.1161 4.11612C10.8817 4.35054 10.75 4.66848 10.75 5C10.75 5.29002 10.5828 5.55405 10.3206 5.67802C9.29524 6.16287 8.42114 6.9176 7.79199 7.86132C7.166 8.80031 6.80598 9.89117 6.75 11.0181V14C6.75 14.0301 6.74819 14.0602 6.74457 14.0901C6.6552 14.8284 6.39374 15.5354 5.98122 16.1542C5.95973 16.1864 5.93786 16.2183 5.91562 16.25H18.0844C18.0621 16.2183 18.0403 16.1864 18.0188 16.1542C17.6063 15.5354 17.3448 14.8284 17.2554 14.0901C17.2518 14.0602 17.25 14.0301 17.25 14V11.0181C17.194 9.89118 16.834 8.80031 16.208 7.86132C15.5789 6.9176 14.7048 6.16287 13.6794 5.67802C13.4172 5.55405 13.25 5.29002 13.25 5C13.25 4.66848 13.1183 4.35054 12.8839 4.11612C12.6495 3.8817 12.3315 3.75 12 3.75ZM10.0555 3.05546C10.5712 2.53973 11.2707 2.25 12 2.25C12.7293 2.25 13.4288 2.53973 13.9445 3.05546C14.3453 3.45621 14.6096 3.96791 14.7075 4.51836C15.8122 5.11852 16.7563 5.97962 17.4561 7.02927C18.2362 8.19949 18.6832 9.55995 18.7492 10.9648C18.7497 10.9765 18.75 10.9883 18.75 11V13.9524C18.8159 14.4422 18.9925 14.9106 19.2669 15.3221C19.5491 15.7455 19.9268 16.0966 20.3696 16.3474C20.666 16.5152 20.812 16.8617 20.7252 17.1911C20.6385 17.5205 20.3406 17.75 20 17.75H4C3.65938 17.75 3.36154 17.5205 3.27475 17.1911C3.18797 16.8617 3.33404 16.5152 3.63043 16.3474C4.0732 16.0966 4.4509 15.7455 4.73315 15.3221C5.00746 14.9106 5.18415 14.4422 5.25 13.9524V11C5.25 10.9883 5.25027 10.9765 5.25082 10.9648C5.31677 9.55995 5.76377 8.19949 6.54391 7.02927C7.24368 5.97962 8.18782 5.11852 9.29249 4.51836C9.39042 3.96791 9.65471 3.45621 10.0555 3.05546Z" fill="var(--fill-0, #3D3D3D)"/>
<path id="Vector (Stroke)_2" fill-rule="evenodd" clip-rule="evenodd" d="M9 16.25C9.41421 16.25 9.75 16.5858 9.75 17V18C9.75 18.5967 9.98705 19.169 10.409 19.591C10.831 20.0129 11.4033 20.25 12 20.25C12.5967 20.25 13.169 20.0129 13.591 19.591C14.0129 19.169 14.25 18.5967 14.25 18V17C14.25 16.5858 14.5858 16.25 15 16.25C15.4142 16.25 15.75 16.5858 15.75 17V18C15.75 18.9946 15.3549 19.9484 14.6517 20.6517C13.9484 21.3549 12.9946 21.75 12 21.75C11.0054 21.75 10.0516 21.3549 9.34835 20.6517C8.64509 19.9484 8.25 18.9946 8.25 18V17C8.25 16.5858 8.58579 16.25 9 16.25Z" fill="var(--fill-0, #3D3D3D)"/>
<circle id="Ellipse 1" cx="17" cy="6" r="4" fill="var(--fill-0, #EE3E17)"/>
</g>
</svg>
