<svg preserveAspectRatio="none" width="100%" height="100%" overflow="visible" style="display: block;" viewBox="0 0 24 24" fill="none" xmlns="http://www.w3.org/2000/svg">
<g id="Frame">
<path id="Vector (Stroke)" fill-rule="evenodd" clip-rule="evenodd" d="M3.25 7C3.25 6.58579 3.58579 6.25 4 6.25H20C20.4142 6.25 20.75 6.58579 20.75 7C20.75 7.41421 20.4142 7.75 20 7.75H4C3.58579 7.75 3.25 7.41421 3.25 7Z" fill="var(--fill-0, #3D3D3D)"/>
<path id="Vector (Stroke)_2" fill-rule="evenodd" clip-rule="evenodd" d="M10 10.25C10.4142 10.25 10.75 10.5858 10.75 11V17C10.75 17.4142 10.4142 17.75 10 17.75C9.58579 17.75 9.25 17.4142 9.25 17V11C9.25 10.5858 9.58579 10.25 10 10.25Z" fill="var(--fill-0, #3D3D3D)"/>
<path id="Vector (Stroke)_3" fill-rule="evenodd" clip-rule="evenodd" d="M14 10.25C14.4142 10.25 14.75 10.5858 14.75 11V17C14.75 17.4142 14.4142 17.75 14 17.75C13.5858 17.75 13.25 17.4142 13.25 17V11C13.25 10.5858 13.5858 10.25 14 10.25Z" fill="var(--fill-0, #3D3D3D)"/>
<path id="Vector (Stroke)_4" fill-rule="evenodd" clip-rule="evenodd" d="M4.93772 6.25259C5.3505 6.21819 5.71301 6.52493 5.74741 6.93772L6.74741 18.9377C6.74914 18.9584 6.75 18.9792 6.75 19C6.75 19.3315 6.8817 19.6495 7.11612 19.8839C7.35054 20.1183 7.66848 20.25 8 20.25H16C16.3315 20.25 16.6495 20.1183 16.8839 19.8839C17.1183 19.6495 17.25 19.3315 17.25 19C17.25 18.9792 17.2509 18.9584 17.2526 18.9377L18.2526 6.93772C18.287 6.52493 18.6495 6.21819 19.0623 6.25259C19.4751 6.28699 19.7818 6.6495 19.7474 7.06228L18.7498 19.0337C18.741 19.7508 18.4523 20.4368 17.9445 20.9445C17.4288 21.4603 16.7293 21.75 16 21.75H8C7.27065 21.75 6.57118 21.4603 6.05546 20.9445C5.54767 20.4368 5.25898 19.7508 5.25021 19.0337L4.25259 7.06228C4.21819 6.6495 4.52493 6.28699 4.93772 6.25259Z" fill="var(--fill-0, #3D3D3D)"/>
<path id="Vector (Stroke)_5" fill-rule="evenodd" clip-rule="evenodd" d="M10 3.75C9.9337 3.75 9.87011 3.77634 9.82322 3.82322C9.77634 3.87011 9.75 3.9337 9.75 4V7C9.75 7.41421 9.41421 7.75 9 7.75C8.58579 7.75 8.25 7.41421 8.25 7V4C8.25 3.53587 8.43437 3.09075 8.76256 2.76256C9.09075 2.43437 9.53587 2.25 10 2.25H14C14.4641 2.25 14.9092 2.43437 15.2374 2.76256C15.5656 3.09075 15.75 3.53587 15.75 4V7C15.75 7.41421 15.4142 7.75 15 7.75C14.5858 7.75 14.25 7.41421 14.25 7V4C14.25 3.9337 14.2237 3.87011 14.1768 3.82322C14.1299 3.77634 14.0663 3.75 14 3.75H10Z" fill="var(--fill-0, #3D3D3D)"/>
</g>
</svg>
